<svg width="14" height="14" viewBox="0 0 14 14" fill="none" xmlns="http://www.w3.org/2000/svg">
<path d="M7.8335 1.16683C7.8335 0.706592 7.4604 0.333496 7.00016 0.333496C6.53993 0.333496 6.16683 0.706592 6.16683 1.16683V6.16683H1.16683C0.706592 6.16683 0.333496 6.53992 0.333496 7.00016C0.333496 7.4604 0.706592 7.83349 1.16683 7.83349H6.16683V12.8335C6.16683 13.2937 6.53993 13.6668 7.00016 13.6668C7.4604 13.6668 7.8335 13.2937 7.8335 12.8335V7.8335H12.8335C13.2937 7.8335 13.6668 7.4604 13.6668 7.00016C13.6668 6.53993 13.2937 6.16683 12.8335 6.16683H7.8335V1.16683Z" fill="#4B4B4B"/>
</svg>
