<svg width="54" height="58" viewBox="0 0 54 58" fill="none" xmlns="http://www.w3.org/2000/svg">
<path d="M10.0158 6.07427L15.9541 7.83927C17.206 6.93262 19.8275 5.32526 20.5148 5.97816L20.5186 5.97514C20.5243 5.98234 20.5281 5.99097 20.5333 5.99842C20.5417 6.00747 20.5515 6.0153 20.5593 6.02514L20.554 6.02937C21.0298 6.84952 18.8567 9.02487 17.6832 10.0314L18.0153 16.2173L16.8114 17.4158L15.084 12.0817L10.6847 14.8901L10.8419 17.0808L10.128 17.6439L8.43942 15.5032L8.44019 15.5026L6.7921 13.4132L7.50594 12.8501L9.59987 13.5132L13.3549 9.88954L8.56974 6.96739L10.0158 6.07427Z" fill="#0B3B2D"/>
<path d="M48.8897 25.5625C51.4982 38.1023 43.4464 50.3826 30.9055 52.9913C18.3646 55.6001 6.08364 47.5493 3.47515 35.0095C2.15229 28.6502 3.57108 22.3576 6.92663 17.3593" stroke="#0B3B2D" stroke-width="1.92309"/>
</svg>
