<svg width="24" height="24" viewBox="0 0 24 24" fill="none" xmlns="http://www.w3.org/2000/svg">
<path d="M7.5 1.5V3.5H16.5V1.5H17.5V3.5H19C19.8322 3.5 20.5 4.17451 20.5 5V19C20.5 19.8339 19.8339 20.5 19 20.5H5C4.17451 20.5 3.5 19.8322 3.5 19V5C3.5 4.17614 4.17614 3.5 5 3.5H6.5V1.5H7.5ZM4.5 19.5H19.5V8.5H4.5V19.5ZM15.79 11.5303L10.5596 16.7529L8.09668 14.29L8.44922 13.9365L10.5596 16.0469L10.9131 15.6934L15.4307 11.1748L15.79 11.5303ZM4.5 7.5H19.5V4.5H4.5V7.5Z" fill="#1B1B1B" stroke="#A1A1A1"/>
</svg>
