<svg width="24" height="24" viewBox="0 0 24 24" fill="none" xmlns="http://www.w3.org/2000/svg">
<path d="M16.5229 9.848H21.5149L18.3339 6.665C17.3098 5.64087 16.0341 4.90439 14.6351 4.52961C13.2361 4.15482 11.7631 4.15493 10.3642 4.52992C8.96522 4.90492 7.68965 5.64159 6.66569 6.66587C5.64172 7.69015 4.90545 8.96595 4.53089 10.365M3.48489 20.144V15.152M3.48489 15.152H8.47689M3.48489 15.152L6.66489 18.335C7.689 19.3591 8.96468 20.0956 10.3637 20.4704C11.7627 20.8452 13.2357 20.8451 14.6346 20.4701C16.0336 20.0951 17.3091 19.3584 18.3331 18.3341C19.3571 17.3099 20.0933 16.0341 20.4679 14.635M21.5149 4.856V9.846" stroke="currentColor" stroke-width="1.5" stroke-linecap="round" stroke-linejoin="round"/>
</svg>
